<?xml version="1.0" encoding="UTF-8" standalone="no"?>
<!DOCTYPE svg PUBLIC "-//W3C//DTD SVG 1.1//EN"
 "http://www.w3.org/Graphics/SVG/1.1/DTD/svg11.dtd">
<!-- Generated by graphviz version 14.1.0 (20251206.1807)
 -->
<!-- Title: AdminBackendArchitecture Pages: 1 -->
<svg width="1069pt" height="788pt"
 viewBox="0.00 0.00 1069.00 788.00" xmlns="http://www.w3.org/2000/svg" xmlns:xlink="http://www.w3.org/1999/xlink">
<g id="graph0" class="graph" transform="scale(1 1) rotate(0) translate(4 784)">
<title>AdminBackendArchitecture</title>
<polygon fill="white" stroke="none" points="-4,4 -4,-784 1065,-784 1065,4 -4,4"/>
<g id="clust1" class="cluster">
<title>cluster_entry</title>
<polygon fill="lightgrey" stroke="lightgrey" points="543,-695 543,-772 687,-772 687,-695 543,-695"/>
<text xml:space="preserve" text-anchor="middle" x="615" y="-754.7" font-family="Times,serif" font-size="14.00">エントリーポイント</text>
</g>
<g id="clust2" class="cluster">
<title>cluster_router</title>
<polygon fill="lightyellow" stroke="lightyellow" points="406,-587.5 406,-664 564,-664 564,-587.5 406,-587.5"/>
<text xml:space="preserve" text-anchor="middle" x="485" y="-646.7" font-family="Times,serif" font-size="14.00">Router</text>
</g>
<g id="clust3" class="cluster">
<title>cluster_handler</title>
<polygon fill="lightblue" stroke="lightblue" points="51,-443.5 51,-556.5 887,-556.5 887,-443.5 51,-443.5"/>
<text xml:space="preserve" text-anchor="middle" x="469" y="-539.2" font-family="Times,serif" font-size="14.00">admin/handler</text>
</g>
<g id="clust4" class="cluster">
<title>cluster_service</title>
<polygon fill="lightgreen" stroke="lightgreen" points="57,-290 57,-403 882,-403 882,-290 57,-290"/>
<text xml:space="preserve" text-anchor="middle" x="469.5" y="-385.7" font-family="Times,serif" font-size="14.00">admin/service</text>
</g>
<g id="clust5" class="cluster">
<title>cluster_admin_repo</title>
<polygon fill="lightsalmon" stroke="lightsalmon" points="8,-111.75 8,-241.25 744,-241.25 744,-111.75 8,-111.75"/>
<text xml:space="preserve" text-anchor="middle" x="376" y="-223.95" font-family="Times,serif" font-size="14.00">admin/repository</text>
</g>
<g id="clust6" class="cluster">
<title>cluster_shared_repo</title>
<polygon fill="lightpink" stroke="lightpink" points="752,-103.5 752,-249.5 1053,-249.5 1053,-103.5 752,-103.5"/>
<text xml:space="preserve" text-anchor="middle" x="902.5" y="-232.2" font-family="Times,serif" font-size="14.00">shared/repository</text>
</g>
<g id="clust7" class="cluster">
<title>cluster_models</title>
<polygon fill="white" stroke="white" points="234,-8 234,-84.5 801,-84.5 801,-8 234,-8"/>
<text xml:space="preserve" text-anchor="middle" x="517.5" y="-67.2" font-family="Times,serif" font-size="14.00">shared/models</text>
</g>
<g id="clust8" class="cluster">
<title>cluster_config</title>
<polygon fill="lavender" stroke="lavender" points="572,-585.75 572,-665.75 784,-665.75 784,-585.75 572,-585.75"/>
<text xml:space="preserve" text-anchor="middle" x="678" y="-648.45" font-family="Times,serif" font-size="14.00">shared/config</text>
</g>
<!-- main -->
<g id="node1" class="node">
<title>main</title>
<polygon fill="none" stroke="black" points="647.38,-741 582.62,-741 582.62,-703 647.38,-703 647.38,-741"/>
<text xml:space="preserve" text-anchor="middle" x="615" y="-723.7" font-family="Helvetica,sans-Serif" font-size="14.00">main.go</text>
<text xml:space="preserve" text-anchor="middle" x="615" y="-708.7" font-family="Helvetica,sans-Serif" font-size="14.00">main()</text>
</g>
<!-- SetupAdminRoutes -->
<g id="node2" class="node">
<title>SetupAdminRoutes</title>
<polygon fill="none" stroke="black" points="556,-631.5 414,-631.5 414,-595.5 556,-595.5 556,-631.5"/>
<text xml:space="preserve" text-anchor="middle" x="485" y="-607.7" font-family="Helvetica,sans-Serif" font-size="14.00">SetupAdminRoutes()</text>
</g>
<!-- main&#45;&gt;SetupAdminRoutes -->
<g id="edge3" class="edge">
<title>main&#45;&gt;SetupAdminRoutes</title>
<path fill="none" stroke="black" d="M586.55,-702.66C578.53,-697.2 569.9,-691.05 562.25,-685 544.28,-670.78 525.25,-653.44 510.57,-639.52"/>
<polygon fill="black" stroke="black" points="513.21,-637.2 503.57,-632.81 508.37,-642.26 513.21,-637.2"/>
<text xml:space="preserve" text-anchor="middle" x="586.62" y="-675.12" font-family="Helvetica,sans-Serif" font-size="10.00">ルート設定</text>
</g>
<!-- Config -->
<g id="node25" class="node">
<title>Config</title>
<polygon fill="none" stroke="black" points="649.62,-633.25 580.38,-633.25 580.38,-593.75 649.62,-593.75 649.62,-633.25"/>
<text xml:space="preserve" text-anchor="middle" x="615" y="-615.95" font-family="Helvetica,sans-Serif" font-size="14.00">Config</text>
<text xml:space="preserve" text-anchor="middle" x="615" y="-600.95" font-family="Helvetica,sans-Serif" font-size="14.00">・Load()</text>
</g>
<!-- main&#45;&gt;Config -->
<g id="edge1" class="edge">
<title>main&#45;&gt;Config</title>
<path fill="none" stroke="black" d="M615,-702.93C615,-687.16 615,-663.93 615,-645.24"/>
<polygon fill="black" stroke="black" points="618.5,-645.25 615,-635.25 611.5,-645.25 618.5,-645.25"/>
<text xml:space="preserve" text-anchor="middle" x="628.5" y="-675.5" font-family="Helvetica,sans-Serif" font-size="10.00">Load()</text>
</g>
<!-- Database -->
<g id="node26" class="node">
<title>Database</title>
<polygon fill="none" stroke="black" points="776.12,-633.25 667.88,-633.25 667.88,-593.75 776.12,-593.75 776.12,-633.25"/>
<text xml:space="preserve" text-anchor="middle" x="722" y="-615.95" font-family="Helvetica,sans-Serif" font-size="14.00">Database</text>
<text xml:space="preserve" text-anchor="middle" x="722" y="-600.95" font-family="Helvetica,sans-Serif" font-size="14.00">・ConnectDB()</text>
</g>
<!-- main&#45;&gt;Database -->
<g id="edge2" class="edge">
<title>main&#45;&gt;Database</title>
<path fill="none" stroke="black" d="M633.15,-702.93C649.98,-686.18 675.25,-661.03 694.55,-641.82"/>
<polygon fill="black" stroke="black" points="696.98,-644.34 701.6,-634.8 692.04,-639.38 696.98,-644.34"/>
<text xml:space="preserve" text-anchor="middle" x="690.59" y="-675.5" font-family="Helvetica,sans-Serif" font-size="10.00">ConnectDB()</text>
</g>
<!-- DashboardHandler -->
<g id="node3" class="node">
<title>DashboardHandler</title>
<polygon fill="none" stroke="black" points="388.12,-507.5 219.88,-507.5 219.88,-468 388.12,-468 388.12,-507.5"/>
<text xml:space="preserve" text-anchor="middle" x="304" y="-490.2" font-family="Helvetica,sans-Serif" font-size="14.00">AdminDashboardHandler</text>
<text xml:space="preserve" text-anchor="middle" x="304" y="-475.2" font-family="Helvetica,sans-Serif" font-size="14.00">・GetSummary()</text>
</g>
<!-- SetupAdminRoutes&#45;&gt;DashboardHandler -->
<g id="edge4" class="edge">
<title>SetupAdminRoutes&#45;&gt;DashboardHandler</title>
<path fill="none" stroke="black" d="M447.85,-595.15C436.56,-589.42 424.29,-582.71 413.5,-575.75 385.12,-557.43 355.24,-533.33 333.88,-515.14"/>
<polygon fill="black" stroke="black" points="336.29,-512.59 326.43,-508.73 331.73,-517.9 336.29,-512.59"/>
<text xml:space="preserve" text-anchor="middle" x="447.25" y="-566.25" font-family="Helvetica,sans-Serif" font-size="10.00">New...Handler()</text>
</g>
<!-- ReportHandler -->
<g id="node4" class="node">
<title>ReportHandler</title>
<polygon fill="none" stroke="black" points="201.38,-515.75 58.62,-515.75 58.62,-459.75 201.38,-459.75 201.38,-515.75"/>
<text xml:space="preserve" text-anchor="middle" x="130" y="-498.45" font-family="Helvetica,sans-Serif" font-size="14.00">AdminReportHandler</text>
<text xml:space="preserve" text-anchor="middle" x="130" y="-483.45" font-family="Helvetica,sans-Serif" font-size="14.00">・GetReports()</text>
<text xml:space="preserve" text-anchor="middle" x="130" y="-466.95" font-family="Helvetica,sans-Serif" font-size="14.00">・HandleReport()</text>
</g>
<!-- SetupAdminRoutes&#45;&gt;ReportHandler -->
<g id="edge5" class="edge">
<title>SetupAdminRoutes&#45;&gt;ReportHandler</title>
<path fill="none" stroke="black" d="M413.54,-607.57C356.37,-601.4 275.41,-587.54 211,-556.5 194.07,-548.34 177.7,-535.85 164.17,-523.8"/>
<polygon fill="black" stroke="black" points="166.54,-521.23 156.82,-517.03 161.8,-526.38 166.54,-521.23"/>
<text xml:space="preserve" text-anchor="middle" x="286.86" y="-566.25" font-family="Helvetica,sans-Serif" font-size="10.00">New...Handler()</text>
</g>
<!-- BusinessHandler -->
<g id="node5" class="node">
<title>BusinessHandler</title>
<polygon fill="none" stroke="black" points="563.5,-524 406.5,-524 406.5,-451.5 563.5,-451.5 563.5,-524"/>
<text xml:space="preserve" text-anchor="middle" x="485" y="-506.7" font-family="Helvetica,sans-Serif" font-size="14.00">AdminBusinessHandler</text>
<text xml:space="preserve" text-anchor="middle" x="485" y="-491.7" font-family="Helvetica,sans-Serif" font-size="14.00">・GetApplications()</text>
<text xml:space="preserve" text-anchor="middle" x="485" y="-475.2" font-family="Helvetica,sans-Serif" font-size="14.00">・ApproveApplication()</text>
<text xml:space="preserve" text-anchor="middle" x="485" y="-458.7" font-family="Helvetica,sans-Serif" font-size="14.00">・RejectApplication()</text>
</g>
<!-- SetupAdminRoutes&#45;&gt;BusinessHandler -->
<g id="edge6" class="edge">
<title>SetupAdminRoutes&#45;&gt;BusinessHandler</title>
<path fill="none" stroke="black" d="M485,-595.03C485,-579.63 485,-556.47 485,-535.69"/>
<polygon fill="black" stroke="black" points="488.5,-535.98 485,-525.98 481.5,-535.98 488.5,-535.98"/>
<text xml:space="preserve" text-anchor="middle" x="518.75" y="-566.25" font-family="Helvetica,sans-Serif" font-size="10.00">New...Handler()</text>
</g>
<!-- UserHandler -->
<g id="node6" class="node">
<title>UserHandler</title>
<polygon fill="none" stroke="black" points="879.38,-515.75 748.62,-515.75 748.62,-459.75 879.38,-459.75 879.38,-515.75"/>
<text xml:space="preserve" text-anchor="middle" x="814" y="-498.45" font-family="Helvetica,sans-Serif" font-size="14.00">AdminUserHandler</text>
<text xml:space="preserve" text-anchor="middle" x="814" y="-483.45" font-family="Helvetica,sans-Serif" font-size="14.00">・GetUsers()</text>
<text xml:space="preserve" text-anchor="middle" x="814" y="-466.95" font-family="Helvetica,sans-Serif" font-size="14.00">・DeleteUser()</text>
</g>
<!-- SetupAdminRoutes&#45;&gt;UserHandler -->
<g id="edge7" class="edge">
<title>SetupAdminRoutes&#45;&gt;UserHandler</title>
<path fill="none" stroke="black" d="M534.19,-595.04C545.21,-591.58 556.92,-588.25 568,-585.75 643.21,-568.76 670.13,-591.16 739,-556.5 755.07,-548.41 770.3,-535.93 782.78,-523.88"/>
<polygon fill="black" stroke="black" points="784.92,-526.69 789.5,-517.14 779.96,-521.75 784.92,-526.69"/>
<text xml:space="preserve" text-anchor="middle" x="753.26" y="-566.25" font-family="Helvetica,sans-Serif" font-size="10.00">New...Handler()</text>
</g>
<!-- ContactHandler -->
<g id="node7" class="node">
<title>ContactHandler</title>
<polygon fill="none" stroke="black" points="730.38,-524 581.62,-524 581.62,-451.5 730.38,-451.5 730.38,-524"/>
<text xml:space="preserve" text-anchor="middle" x="656" y="-506.7" font-family="Helvetica,sans-Serif" font-size="14.00">AdminContactHandler</text>
<text xml:space="preserve" text-anchor="middle" x="656" y="-491.7" font-family="Helvetica,sans-Serif" font-size="14.00">・GetInquiries()</text>
<text xml:space="preserve" text-anchor="middle" x="656" y="-475.2" font-family="Helvetica,sans-Serif" font-size="14.00">・ApproveInquiry()</text>
<text xml:space="preserve" text-anchor="middle" x="656" y="-458.7" font-family="Helvetica,sans-Serif" font-size="14.00">・RejectInquiry()</text>
</g>
<!-- SetupAdminRoutes&#45;&gt;ContactHandler -->
<g id="edge8" class="edge">
<title>SetupAdminRoutes&#45;&gt;ContactHandler</title>
<path fill="none" stroke="black" d="M523.38,-595.13C534.55,-589.49 546.55,-582.84 557,-575.75 576.02,-562.84 595.36,-546.65 611.84,-531.76"/>
<polygon fill="black" stroke="black" points="614.06,-534.48 619.07,-525.14 609.33,-529.32 614.06,-534.48"/>
<text xml:space="preserve" text-anchor="middle" x="605.3" y="-566.25" font-family="Helvetica,sans-Serif" font-size="10.00">New...Handler()</text>
</g>
<!-- DashboardService -->
<g id="node8" class="node">
<title>DashboardService</title>
<polygon fill="none" stroke="black" points="389,-354 223,-354 223,-314.5 389,-314.5 389,-354"/>
<text xml:space="preserve" text-anchor="middle" x="306" y="-336.7" font-family="Helvetica,sans-Serif" font-size="14.00">AdminDashboardService</text>
<text xml:space="preserve" text-anchor="middle" x="306" y="-321.7" font-family="Helvetica,sans-Serif" font-size="14.00">・GetSummary()</text>
</g>
<!-- DashboardHandler&#45;&gt;DashboardService -->
<g id="edge9" class="edge">
<title>DashboardHandler&#45;&gt;DashboardService</title>
<path fill="none" stroke="black" d="M304.25,-467.56C304.59,-441.84 305.2,-395.89 305.6,-365.48"/>
<polygon fill="black" stroke="black" points="309.1,-365.84 305.73,-355.8 302.1,-365.75 309.1,-365.84"/>
<text xml:space="preserve" text-anchor="middle" x="336.88" y="-418.38" font-family="Helvetica,sans-Serif" font-size="10.00">GetSummary()</text>
</g>
<!-- ReportService -->
<g id="node9" class="node">
<title>ReportService</title>
<polygon fill="none" stroke="black" points="205.25,-362.25 64.75,-362.25 64.75,-306.25 205.25,-306.25 205.25,-362.25"/>
<text xml:space="preserve" text-anchor="middle" x="135" y="-344.95" font-family="Helvetica,sans-Serif" font-size="14.00">AdminReportService</text>
<text xml:space="preserve" text-anchor="middle" x="135" y="-329.95" font-family="Helvetica,sans-Serif" font-size="14.00">・GetReports()</text>
<text xml:space="preserve" text-anchor="middle" x="135" y="-313.45" font-family="Helvetica,sans-Serif" font-size="14.00">・MarkAsHandled()</text>
</g>
<!-- ReportHandler&#45;&gt;ReportService -->
<g id="edge10" class="edge">
<title>ReportHandler&#45;&gt;ReportService</title>
<path fill="none" stroke="black" d="M130.91,-459.31C131.69,-435.47 132.84,-400.67 133.72,-373.99"/>
<polygon fill="black" stroke="black" points="137.21,-374.36 134.04,-364.25 130.21,-374.13 137.21,-374.36"/>
<text xml:space="preserve" text-anchor="middle" x="170.38" y="-424" font-family="Helvetica,sans-Serif" font-size="10.00">GetReports()</text>
<text xml:space="preserve" text-anchor="middle" x="170.38" y="-412.75" font-family="Helvetica,sans-Serif" font-size="10.00">MarkAsHandled()</text>
</g>
<!-- BusinessService -->
<g id="node10" class="node">
<title>BusinessService</title>
<polygon fill="none" stroke="black" points="562.75,-370.5 407.25,-370.5 407.25,-298 562.75,-298 562.75,-370.5"/>
<text xml:space="preserve" text-anchor="middle" x="485" y="-353.2" font-family="Helvetica,sans-Serif" font-size="14.00">AdminBusinessService</text>
<text xml:space="preserve" text-anchor="middle" x="485" y="-338.2" font-family="Helvetica,sans-Serif" font-size="14.00">・GetApplications()</text>
<text xml:space="preserve" text-anchor="middle" x="485" y="-321.7" font-family="Helvetica,sans-Serif" font-size="14.00">・ApproveApplication()</text>
<text xml:space="preserve" text-anchor="middle" x="485" y="-305.2" font-family="Helvetica,sans-Serif" font-size="14.00">・RejectApplication()</text>
</g>
<!-- BusinessHandler&#45;&gt;BusinessService -->
<g id="edge11" class="edge">
<title>BusinessHandler&#45;&gt;BusinessService</title>
<path fill="none" stroke="black" d="M485,-451.23C485,-430.6 485,-404.36 485,-382.06"/>
<polygon fill="black" stroke="black" points="488.5,-382.32 485,-372.32 481.5,-382.32 488.5,-382.32"/>
<text xml:space="preserve" text-anchor="middle" x="522.5" y="-424" font-family="Helvetica,sans-Serif" font-size="10.00">GetApplications()</text>
<text xml:space="preserve" text-anchor="middle" x="522.5" y="-412.75" font-family="Helvetica,sans-Serif" font-size="10.00">Approve/Reject()</text>
</g>
<!-- UserService -->
<g id="node11" class="node">
<title>UserService</title>
<polygon fill="none" stroke="black" points="874.25,-362.25 745.75,-362.25 745.75,-306.25 874.25,-306.25 874.25,-362.25"/>
<text xml:space="preserve" text-anchor="middle" x="810" y="-344.95" font-family="Helvetica,sans-Serif" font-size="14.00">AdminUserService</text>
<text xml:space="preserve" text-anchor="middle" x="810" y="-329.95" font-family="Helvetica,sans-Serif" font-size="14.00">・GetUsers()</text>
<text xml:space="preserve" text-anchor="middle" x="810" y="-313.45" font-family="Helvetica,sans-Serif" font-size="14.00">・DeleteUser()</text>
</g>
<!-- UserHandler&#45;&gt;UserService -->
<g id="edge12" class="edge">
<title>UserHandler&#45;&gt;UserService</title>
<path fill="none" stroke="black" d="M813.28,-459.31C812.65,-435.47 811.73,-400.67 811.02,-373.99"/>
<polygon fill="black" stroke="black" points="814.53,-374.15 810.77,-364.25 807.53,-374.34 814.53,-374.15"/>
<text xml:space="preserve" text-anchor="middle" x="840.34" y="-424" font-family="Helvetica,sans-Serif" font-size="10.00">GetUsers()</text>
<text xml:space="preserve" text-anchor="middle" x="840.34" y="-412.75" font-family="Helvetica,sans-Serif" font-size="10.00">DeleteUser()</text>
</g>
<!-- ContactService -->
<g id="node12" class="node">
<title>ContactService</title>
<polygon fill="none" stroke="black" points="727.25,-370.5 580.75,-370.5 580.75,-298 727.25,-298 727.25,-370.5"/>
<text xml:space="preserve" text-anchor="middle" x="654" y="-353.2" font-family="Helvetica,sans-Serif" font-size="14.00">AdminContactService</text>
<text xml:space="preserve" text-anchor="middle" x="654" y="-338.2" font-family="Helvetica,sans-Serif" font-size="14.00">・GetInquiries()</text>
<text xml:space="preserve" text-anchor="middle" x="654" y="-321.7" font-family="Helvetica,sans-Serif" font-size="14.00">・ApproveInquiry()</text>
<text xml:space="preserve" text-anchor="middle" x="654" y="-305.2" font-family="Helvetica,sans-Serif" font-size="14.00">・RejectInquiry()</text>
</g>
<!-- ContactHandler&#45;&gt;ContactService -->
<g id="edge13" class="edge">
<title>ContactHandler&#45;&gt;ContactService</title>
<path fill="none" stroke="black" d="M655.53,-451.23C655.26,-430.6 654.91,-404.36 654.62,-382.06"/>
<polygon fill="black" stroke="black" points="658.12,-382.28 654.49,-372.32 651.12,-382.37 658.12,-382.28"/>
<text xml:space="preserve" text-anchor="middle" x="692.05" y="-424" font-family="Helvetica,sans-Serif" font-size="10.00">GetInquiries()</text>
<text xml:space="preserve" text-anchor="middle" x="692.05" y="-412.75" font-family="Helvetica,sans-Serif" font-size="10.00">Approve/Reject()</text>
</g>
<!-- ReportRepo -->
<g id="node13" class="node">
<title>ReportRepo</title>
<polygon fill="none" stroke="black" points="170.38,-208.75 15.62,-208.75 15.62,-119.75 170.38,-119.75 170.38,-208.75"/>
<text xml:space="preserve" text-anchor="middle" x="93" y="-191.45" font-family="Helvetica,sans-Serif" font-size="14.00">ReportRepository</text>
<text xml:space="preserve" text-anchor="middle" x="93" y="-176.45" font-family="Helvetica,sans-Serif" font-size="14.00">・FindAll()</text>
<text xml:space="preserve" text-anchor="middle" x="93" y="-159.95" font-family="Helvetica,sans-Serif" font-size="14.00">・FindByID()</text>
<text xml:space="preserve" text-anchor="middle" x="93" y="-143.45" font-family="Helvetica,sans-Serif" font-size="14.00">・MarkAsHandled()</text>
<text xml:space="preserve" text-anchor="middle" x="93" y="-126.95" font-family="Helvetica,sans-Serif" font-size="14.00">・CountUnprocessed()</text>
</g>
<!-- DashboardService&#45;&gt;ReportRepo -->
<g id="edge16" class="edge">
<title>DashboardService&#45;&gt;ReportRepo</title>
<path fill="none" stroke="black" d="M259.8,-314.07C240.72,-305.09 218.92,-293.41 201,-280 177.13,-262.13 154.01,-238.68 135.33,-217.64"/>
<polygon fill="black" stroke="black" points="138.08,-215.47 128.86,-210.24 132.81,-220.07 138.08,-215.47"/>
<text xml:space="preserve" text-anchor="middle" x="246" y="-264.88" font-family="Helvetica,sans-Serif" font-size="10.00">CountUnprocessed()</text>
</g>
<!-- BusinessMemberRepo -->
<g id="node15" class="node">
<title>BusinessMemberRepo</title>
<polygon fill="none" stroke="black" points="375.12,-192.25 188.88,-192.25 188.88,-136.25 375.12,-136.25 375.12,-192.25"/>
<text xml:space="preserve" text-anchor="middle" x="282" y="-174.95" font-family="Helvetica,sans-Serif" font-size="14.00">BusinessMemberRepository</text>
<text xml:space="preserve" text-anchor="middle" x="282" y="-159.95" font-family="Helvetica,sans-Serif" font-size="14.00">・CountAll()</text>
<text xml:space="preserve" text-anchor="middle" x="282" y="-143.45" font-family="Helvetica,sans-Serif" font-size="14.00">・Create()</text>
</g>
<!-- DashboardService&#45;&gt;BusinessMemberRepo -->
<g id="edge17" class="edge">
<title>DashboardService&#45;&gt;BusinessMemberRepo</title>
<path fill="none" stroke="black" d="M303.29,-314.3C299.48,-287.63 292.45,-238.4 287.51,-203.84"/>
<polygon fill="black" stroke="black" points="291.02,-203.63 286.14,-194.23 284.09,-204.62 291.02,-203.63"/>
<text xml:space="preserve" text-anchor="middle" x="319.99" y="-264.88" font-family="Helvetica,sans-Serif" font-size="10.00">CountAll()</text>
</g>
<!-- UserRepo -->
<g id="node17" class="node">
<title>UserRepo</title>
<polygon fill="none" stroke="black" points="1044.5,-217 905.5,-217 905.5,-111.5 1044.5,-111.5 1044.5,-217"/>
<text xml:space="preserve" text-anchor="middle" x="975" y="-199.7" font-family="Helvetica,sans-Serif" font-size="14.00">UserRepository</text>
<text xml:space="preserve" text-anchor="middle" x="975" y="-184.7" font-family="Helvetica,sans-Serif" font-size="14.00">・FindAll()</text>
<text xml:space="preserve" text-anchor="middle" x="975" y="-168.2" font-family="Helvetica,sans-Serif" font-size="14.00">・FindByGoogleID()</text>
<text xml:space="preserve" text-anchor="middle" x="975" y="-151.7" font-family="Helvetica,sans-Serif" font-size="14.00">・CountAll()</text>
<text xml:space="preserve" text-anchor="middle" x="975" y="-135.2" font-family="Helvetica,sans-Serif" font-size="14.00">・CountByRole()</text>
<text xml:space="preserve" text-anchor="middle" x="975" y="-118.7" font-family="Helvetica,sans-Serif" font-size="14.00">・SoftDelete()</text>
</g>
<!-- DashboardService&#45;&gt;UserRepo -->
<g id="edge14" class="edge">
<title>DashboardService&#45;&gt;UserRepo</title>
<path fill="none" stroke="black" d="M338.01,-314.19C355.17,-305.02 377.05,-294.97 398,-290 439.42,-280.18 742.51,-298.19 781,-280 792.96,-274.35 788.7,-263.49 800.5,-257.5 838.88,-238.02 858.31,-268.35 897,-249.5 909.04,-243.63 920.13,-235.05 929.95,-225.57"/>
<polygon fill="black" stroke="black" points="932.35,-228.12 936.82,-218.52 927.34,-223.23 932.35,-228.12"/>
<text xml:space="preserve" text-anchor="middle" x="832.75" y="-270.5" font-family="Helvetica,sans-Serif" font-size="10.00">CountAll()</text>
<text xml:space="preserve" text-anchor="middle" x="832.75" y="-259.25" font-family="Helvetica,sans-Serif" font-size="10.00">CountByRole()</text>
</g>
<!-- PostRepo -->
<g id="node18" class="node">
<title>PostRepo</title>
<polygon fill="none" stroke="black" points="887.88,-192.25 760.12,-192.25 760.12,-136.25 887.88,-136.25 887.88,-192.25"/>
<text xml:space="preserve" text-anchor="middle" x="824" y="-174.95" font-family="Helvetica,sans-Serif" font-size="14.00">PostRepository</text>
<text xml:space="preserve" text-anchor="middle" x="824" y="-159.95" font-family="Helvetica,sans-Serif" font-size="14.00">・CountAll()</text>
<text xml:space="preserve" text-anchor="middle" x="824" y="-143.45" font-family="Helvetica,sans-Serif" font-size="14.00">・SumReactions()</text>
</g>
<!-- DashboardService&#45;&gt;PostRepo -->
<g id="edge15" class="edge">
<title>DashboardService&#45;&gt;PostRepo</title>
<path fill="none" stroke="black" d="M338.45,-314.04C355.55,-304.95 377.24,-295.01 398,-290 429.23,-282.46 657.4,-292.49 687,-280 700.32,-274.38 697.72,-264.27 710.5,-257.5 725.56,-249.53 733.24,-258.02 748,-249.5 768.3,-237.78 786.14,-218.76 799.43,-201.76"/>
<polygon fill="black" stroke="black" points="802.21,-203.88 805.42,-193.78 796.62,-199.67 802.21,-203.88"/>
<text xml:space="preserve" text-anchor="middle" x="745.75" y="-270.5" font-family="Helvetica,sans-Serif" font-size="10.00">CountAll()</text>
<text xml:space="preserve" text-anchor="middle" x="745.75" y="-259.25" font-family="Helvetica,sans-Serif" font-size="10.00">SumReactions()</text>
</g>
<!-- ReportService&#45;&gt;ReportRepo -->
<g id="edge18" class="edge">
<title>ReportService&#45;&gt;ReportRepo</title>
<path fill="none" stroke="black" d="M109.54,-305.85C103.75,-298.05 98.39,-289.17 95.25,-280 88.82,-261.26 87.05,-239.77 87.28,-220.49"/>
<polygon fill="black" stroke="black" points="90.78,-220.74 87.6,-210.63 83.78,-220.52 90.78,-220.74"/>
<text xml:space="preserve" text-anchor="middle" x="133.12" y="-270.5" font-family="Helvetica,sans-Serif" font-size="10.00">FindAll()</text>
<text xml:space="preserve" text-anchor="middle" x="133.12" y="-259.25" font-family="Helvetica,sans-Serif" font-size="10.00">MarkAsHandled()</text>
</g>
<!-- BusinessRequestRepo -->
<g id="node14" class="node">
<title>BusinessRequestRepo</title>
<polygon fill="none" stroke="black" points="578.75,-200.5 393.25,-200.5 393.25,-128 578.75,-128 578.75,-200.5"/>
<text xml:space="preserve" text-anchor="middle" x="486" y="-183.2" font-family="Helvetica,sans-Serif" font-size="14.00">BusinessRequestRepository</text>
<text xml:space="preserve" text-anchor="middle" x="486" y="-168.2" font-family="Helvetica,sans-Serif" font-size="14.00">・FindAll()</text>
<text xml:space="preserve" text-anchor="middle" x="486" y="-151.7" font-family="Helvetica,sans-Serif" font-size="14.00">・FindByID()</text>
<text xml:space="preserve" text-anchor="middle" x="486" y="-135.2" font-family="Helvetica,sans-Serif" font-size="14.00">・UpdateStatus()</text>
</g>
<!-- BusinessService&#45;&gt;BusinessRequestRepo -->
<g id="edge19" class="edge">
<title>BusinessService&#45;&gt;BusinessRequestRepo</title>
<path fill="none" stroke="black" d="M485.21,-297.62C485.36,-272.68 485.56,-239.09 485.72,-212"/>
<polygon fill="black" stroke="black" points="489.22,-212.36 485.78,-202.34 482.22,-212.32 489.22,-212.36"/>
<text xml:space="preserve" text-anchor="middle" x="518.44" y="-270.5" font-family="Helvetica,sans-Serif" font-size="10.00">FindAll()</text>
<text xml:space="preserve" text-anchor="middle" x="518.44" y="-259.25" font-family="Helvetica,sans-Serif" font-size="10.00">UpdateStatus()</text>
</g>
<!-- BusinessService&#45;&gt;BusinessMemberRepo -->
<g id="edge21" class="edge">
<title>BusinessService&#45;&gt;BusinessMemberRepo</title>
<path fill="none" stroke="black" d="M441.95,-297.62C406.97,-268.67 357.95,-228.1 323.42,-199.53"/>
<polygon fill="black" stroke="black" points="326.07,-197.18 316.13,-193.5 321.61,-202.57 326.07,-197.18"/>
<text xml:space="preserve" text-anchor="middle" x="436.96" y="-264.88" font-family="Helvetica,sans-Serif" font-size="10.00">Create()</text>
</g>
<!-- BusinessService&#45;&gt;UserRepo -->
<g id="edge20" class="edge">
<title>BusinessService&#45;&gt;UserRepo</title>
<path fill="none" stroke="black" d="M549.4,-297.52C556.85,-294.52 564.48,-291.9 572,-290 604.01,-281.91 839.29,-294.41 869,-280 880.78,-274.29 878.86,-266.87 888,-257.5 891.74,-253.67 893.18,-253.25 897,-249.5 904.79,-241.86 912.82,-233.64 920.63,-225.43"/>
<polygon fill="black" stroke="black" points="922.99,-228.02 927.3,-218.34 917.9,-223.22 922.99,-228.02"/>
<text xml:space="preserve" text-anchor="middle" x="927" y="-264.88" font-family="Helvetica,sans-Serif" font-size="10.00">FindByGoogleID()</text>
</g>
<!-- UserService&#45;&gt;UserRepo -->
<g id="edge22" class="edge">
<title>UserService&#45;&gt;UserRepo</title>
<path fill="none" stroke="black" d="M874.68,-328.78C908.67,-322.8 947.78,-309.44 970,-280 980.94,-265.5 984.73,-246.8 985.07,-228.71"/>
<polygon fill="black" stroke="black" points="988.57,-228.72 984.88,-218.79 981.57,-228.85 988.57,-228.72"/>
<text xml:space="preserve" text-anchor="middle" x="1007.01" y="-270.5" font-family="Helvetica,sans-Serif" font-size="10.00">FindAll()</text>
<text xml:space="preserve" text-anchor="middle" x="1007.01" y="-259.25" font-family="Helvetica,sans-Serif" font-size="10.00">SoftDelete()</text>
</g>
<!-- AskRepo -->
<g id="node16" class="node">
<title>AskRepo</title>
<polygon fill="none" stroke="black" points="735.5,-208.75 596.5,-208.75 596.5,-119.75 735.5,-119.75 735.5,-208.75"/>
<text xml:space="preserve" text-anchor="middle" x="666" y="-191.45" font-family="Helvetica,sans-Serif" font-size="14.00">AskRepository</text>
<text xml:space="preserve" text-anchor="middle" x="666" y="-176.45" font-family="Helvetica,sans-Serif" font-size="14.00">・FindAll()</text>
<text xml:space="preserve" text-anchor="middle" x="666" y="-159.95" font-family="Helvetica,sans-Serif" font-size="14.00">・FindByID()</text>
<text xml:space="preserve" text-anchor="middle" x="666" y="-143.45" font-family="Helvetica,sans-Serif" font-size="14.00">・MarkAsHandled()</text>
<text xml:space="preserve" text-anchor="middle" x="666" y="-126.95" font-family="Helvetica,sans-Serif" font-size="14.00">・MarkAsRejected()</text>
</g>
<!-- ContactService&#45;&gt;AskRepo -->
<g id="edge23" class="edge">
<title>ContactService&#45;&gt;AskRepo</title>
<path fill="none" stroke="black" d="M641.97,-297.76C640.43,-291.89 639.09,-285.82 638.25,-280 635.38,-260.16 638.75,-238.73 644.02,-219.82"/>
<polygon fill="black" stroke="black" points="647.3,-221.05 646.86,-210.46 640.6,-219.01 647.3,-221.05"/>
<text xml:space="preserve" text-anchor="middle" x="662.62" y="-270.5" font-family="Helvetica,sans-Serif" font-size="10.00">FindAll()</text>
<text xml:space="preserve" text-anchor="middle" x="662.62" y="-259.25" font-family="Helvetica,sans-Serif" font-size="10.00">MarkAs...()</text>
</g>
<!-- Report -->
<g id="node20" class="node">
<title>Report</title>
<polygon fill="none" stroke="black" points="298.25,-52 241.75,-52 241.75,-16 298.25,-16 298.25,-52"/>
<text xml:space="preserve" text-anchor="middle" x="270" y="-28.2" font-family="Helvetica,sans-Serif" font-size="14.00">Report</text>
</g>
<!-- ReportRepo&#45;&gt;Report -->
<g id="edge26" class="edge">
<title>ReportRepo&#45;&gt;Report</title>
<path fill="none" stroke="black" stroke-dasharray="5,2" d="M153.42,-119.47C181.41,-99.19 213.58,-75.88 237.03,-58.89"/>
<polygon fill="black" stroke="black" points="238.92,-61.84 244.96,-53.14 234.81,-56.18 238.92,-61.84"/>
</g>
<!-- BusinessRequest -->
<g id="node21" class="node">
<title>BusinessRequest</title>
<polygon fill="none" stroke="black" points="576.5,-52 455.5,-52 455.5,-16 576.5,-16 576.5,-52"/>
<text xml:space="preserve" text-anchor="middle" x="516" y="-28.2" font-family="Helvetica,sans-Serif" font-size="14.00">BusinessRequest</text>
</g>
<!-- BusinessRequestRepo&#45;&gt;BusinessRequest -->
<g id="edge27" class="edge">
<title>BusinessRequestRepo&#45;&gt;BusinessRequest</title>
<path fill="none" stroke="black" stroke-dasharray="5,2" d="M494.36,-127.53C499.07,-107.37 504.89,-82.51 509.3,-63.64"/>
<polygon fill="black" stroke="black" points="512.69,-64.5 511.56,-53.96 505.88,-62.9 512.69,-64.5"/>
</g>
<!-- BusinessMember -->
<g id="node22" class="node">
<title>BusinessMember</title>
<polygon fill="none" stroke="black" points="437.88,-52 316.12,-52 316.12,-16 437.88,-16 437.88,-52"/>
<text xml:space="preserve" text-anchor="middle" x="377" y="-28.2" font-family="Helvetica,sans-Serif" font-size="14.00">BusinessMember</text>
</g>
<!-- BusinessMemberRepo&#45;&gt;BusinessMember -->
<g id="edge28" class="edge">
<title>BusinessMemberRepo&#45;&gt;BusinessMember</title>
<path fill="none" stroke="black" stroke-dasharray="5,2" d="M302.15,-136.05C318.47,-114.02 341.32,-83.16 357.48,-61.36"/>
<polygon fill="black" stroke="black" points="360.12,-63.66 363.26,-53.55 354.5,-59.5 360.12,-63.66"/>
</g>
<!-- Ask -->
<g id="node23" class="node">
<title>Ask</title>
<polygon fill="none" stroke="black" points="649,-52 595,-52 595,-16 649,-16 649,-52"/>
<text xml:space="preserve" text-anchor="middle" x="622" y="-28.2" font-family="Helvetica,sans-Serif" font-size="14.00">Ask</text>
</g>
<!-- AskRepo&#45;&gt;Ask -->
<g id="edge29" class="edge">
<title>AskRepo&#45;&gt;Ask</title>
<path fill="none" stroke="black" stroke-dasharray="5,2" d="M650.98,-119.47C644.55,-100.72 637.23,-79.39 631.55,-62.85"/>
<polygon fill="black" stroke="black" points="634.97,-62.01 628.41,-53.69 628.35,-64.28 634.97,-62.01"/>
</g>
<!-- User -->
<g id="node19" class="node">
<title>User</title>
<polygon fill="none" stroke="black" points="793,-52 739,-52 739,-16 793,-16 793,-52"/>
<text xml:space="preserve" text-anchor="middle" x="766" y="-28.2" font-family="Helvetica,sans-Serif" font-size="14.00">User</text>
</g>
<!-- UserRepo&#45;&gt;User -->
<g id="edge24" class="edge">
<title>UserRepo&#45;&gt;User</title>
<path fill="none" stroke="black" stroke-dasharray="5,2" d="M908.74,-111.3C904.81,-108.6 900.88,-105.98 897,-103.5 866.63,-84.13 830.18,-65.41 803.45,-52.44"/>
<polygon fill="black" stroke="black" points="805.25,-49.43 794.72,-48.25 802.22,-55.74 805.25,-49.43"/>
</g>
<!-- Post -->
<g id="node24" class="node">
<title>Post</title>
<polygon fill="none" stroke="black" points="721,-52 667,-52 667,-16 721,-16 721,-52"/>
<text xml:space="preserve" text-anchor="middle" x="694" y="-28.2" font-family="Helvetica,sans-Serif" font-size="14.00">Post</text>
</g>
<!-- PostRepo&#45;&gt;Post -->
<g id="edge25" class="edge">
<title>PostRepo&#45;&gt;Post</title>
<path fill="none" stroke="black" stroke-dasharray="5,2" d="M787.36,-136C769.18,-121.64 747.44,-103.17 730,-84.5 723.47,-77.51 717.09,-69.32 711.55,-61.63"/>
<polygon fill="black" stroke="black" points="714.49,-59.74 705.9,-53.54 708.75,-63.74 714.49,-59.74"/>
</g>
</g>
</svg>
